<?xml version="1.0"?>
<svg xmlns="http://www.w3.org/2000/svg" width="816" height="869" viewBox="0 0 816 869" preserveAspectRatio="xMidYMid meet">
  <path d="M390.56 810.16 c-1.40 -0.74 -1.48 -3.29 -1.48 -34.88 l0 -34.05 -3.45 -0.41 c-1.97 -0.33 -8.31 -1.07 -14.23 -1.73 -19 -2.22 -37.18 -5.35 -67.86 -11.60 -56.10 -11.35 -71.15 -13 -116.40 -12.42 -34.88 0.41 -52.81 1.81 -87.19 6.91 -7.65 1.07 -16.29 2.22 -19.08 2.47 -4.85 0.41 -5.18 0.33 -5.18 -1.23 0 -0.99 5.35 -7.65 13.41 -16.78 7.40 -8.31 15.30 -17.11 17.52 -19.58 2.14 -2.47 8.23 -9.30 13.49 -15.22 22.62 -25.50 112.12 -124.79 150.53 -167.07 11.52 -12.67 25.83 -28.38 31.67 -34.88 5.92 -6.58 16.78 -18.59 24.27 -26.73 7.49 -8.14 20.07 -22.05 27.97 -30.85 16.70 -18.51 75.27 -83 93.36 -102.74 6.75 -7.49 19.33 -21.39 27.89 -30.85 8.55 -9.54 23.36 -26.08 32.90 -36.69 21.55 -23.94 22.21 -24.76 20.89 -25.66 -1.97 -1.23 -23.11 -7.90 -34.38 -10.86 -14.40 -3.78 -31.83 -7.07 -37.02 -7.07 l-4.11 0 0 44.01 0 43.93 -18.26 19.99 c-9.95 11.02 -24.27 26.73 -31.75 34.96 -7.49 8.31 -13.98 15.05 -14.31 15.05 -0.33 0 -0.66 -35.70 -0.66 -79.38 l0 -79.38 -2.63 0 c-8.39 0 -31.92 5.43 -44.25 10.28 -19.91 7.65 -35.95 21.06 -43.19 36.11 -5.51 11.52 -6.50 16.70 -6.50 32.16 0.08 15.46 1.48 21.80 7.16 33.73 11.76 24.27 34.96 39.73 74.53 49.60 5.18 1.23 9.54 2.63 9.71 3.13 0.08 0.41 -3.13 4.44 -7.32 8.97 -9.38 10.28 -17.60 19.33 -45.41 50.10 -21.63 24.02 -22.13 24.43 -24.68 23.85 -1.40 -0.25 -7.32 -2.22 -13.16 -4.20 -36.44 -12.67 -65.72 -30.02 -87.69 -51.99 -14.31 -14.31 -22.62 -26.32 -29.12 -42.12 -12.59 -30.60 -15.30 -67.53 -7.40 -101.92 10.20 -45 43.60 -84.89 90.90 -108.58 31.01 -15.63 75.10 -26.49 121.91 -30.11 l7.16 -0.49 0 -34.80 0 -34.80 6.83 -0.58 c3.70 -0.25 18.26 -0.41 32.25 -0.25 l25.50 0.25 0.41 35.37 0.41 35.37 4.94 0.66 c15.46 1.97 41.13 6.25 64.65 10.86 64.16 12.59 85.55 14.89 130.87 14.15 27.72 -0.41 39.40 -1.23 67.86 -4.69 13.98 -1.73 18.34 -1.97 18.34 -1.15 0 0.66 -10.28 12.34 -46.89 52.89 -16.04 17.85 -30.85 34.38 -32.90 36.69 -3.54 3.95 -26.32 29.28 -51.41 57.17 -5.92 6.58 -15.38 17.11 -21.06 23.44 -5.59 6.33 -13.57 15.22 -17.60 19.74 -11.10 12.42 -55.52 61.53 -81.85 90.57 -36.93 40.72 -44.09 48.53 -53.06 58.32 -21.80 23.69 -65.81 72.63 -99.53 110.64 -9.05 10.20 -22.21 25.09 -29.37 33.07 -7.16 8.06 -13 14.97 -13 15.30 0 4.69 39.48 16.95 73.21 22.70 6.58 1.15 14.07 2.30 16.70 2.63 l4.69 0.49 0 -58.32 0 -58.32 6.83 -7.40 c3.70 -4.11 13.82 -15.14 22.37 -24.68 8.64 -9.46 19.33 -21.22 23.85 -26.16 4.52 -4.94 13.98 -15.38 20.98 -23.11 28.46 -31.42 42.77 -47.22 48.20 -52.81 l5.68 -6 13.57 4.20 c16.45 5.10 28.79 9.62 44.01 16.29 55.52 24.43 88.10 58.73 100.77 106.36 3.54 13.57 4.94 23.28 5.51 38.09 1.56 42.94 -12.09 82.50 -38.66 112.28 -22.37 25.01 -51.25 42.69 -89.83 55.03 -28.38 9.13 -55.61 14.07 -89.25 16.37 l-8.64 0.58 -0.25 33.64 c-0.16 25.75 -0.41 33.89 -1.23 34.38 -1.56 0.99 -60.79 0.74 -62.43 -0.25z m82.42 -161.97 c27.72 -4.52 52.15 -15.96 65.40 -30.60 11.10 -12.26 16.53 -26.24 17.44 -44.67 1.07 -22.29 -5.68 -40.55 -20.65 -56.18 -14.15 -14.72 -33.48 -24.18 -66.55 -32.66 -6.25 -1.56 -12.09 -2.88 -12.91 -2.88 -1.65 0 -1.65 1.15 -1.65 84.15 0 46.31 0.16 84.40 0.41 84.64 0.66 0.66 7.90 -0.08 18.51 -1.81z" fill="#ffffff"></path>
</svg>